<svg width="366" height="96" viewBox="0 0 366 96" fill="none" xmlns="http://www.w3.org/2000/svg">
<path d="M26.1121 52.272C26.1121 48.6027 26.8587 45.4027 28.3521 42.672C29.8454 39.8987 31.9147 37.7653 34.5601 36.272C37.2054 34.736 40.2347 33.968 43.6481 33.968C48.0427 33.968 51.6694 35.0773 54.5281 37.296C57.4294 39.472 59.3707 42.544 60.3521 46.512H50.6881C50.1761 44.976 49.3014 43.7813 48.0641 42.928C46.8694 42.032 45.3761 41.584 43.5841 41.584C41.0241 41.584 38.9974 42.5227 37.5041 44.4C36.0107 46.2347 35.2641 48.8587 35.2641 52.272C35.2641 55.6427 36.0107 58.2667 37.5041 60.144C38.9974 61.9787 41.0241 62.896 43.5841 62.896C47.2107 62.896 49.5787 61.2747 50.6881 58.032H60.3521C59.3707 61.872 57.4294 64.9227 54.5281 67.184C51.6267 69.4453 48.0001 70.576 43.6481 70.576C40.2347 70.576 37.2054 69.8293 34.5601 68.336C31.9147 66.8 29.8454 64.6667 28.3521 61.936C26.8587 59.1627 26.1121 55.9413 26.1121 52.272ZM82.6601 70.576C79.2467 70.576 76.1747 69.8293 73.4441 68.336C70.7134 66.8 68.5587 64.6453 66.9801 61.872C65.4441 59.0987 64.6761 55.8987 64.6761 52.272C64.6761 48.6453 65.4654 45.4453 67.0441 42.672C68.6654 39.8987 70.8627 37.7653 73.6361 36.272C76.4094 34.736 79.5027 33.968 82.9161 33.968C86.3294 33.968 89.4227 34.736 92.1961 36.272C94.9694 37.7653 97.1454 39.8987 98.7241 42.672C100.345 45.4453 101.156 48.6453 101.156 52.272C101.156 55.8987 100.324 59.0987 98.6601 61.872C97.0387 64.6453 94.8201 66.8 92.0041 68.336C89.2307 69.8293 86.1161 70.576 82.6601 70.576ZM82.6601 62.768C84.2814 62.768 85.7961 62.384 87.2041 61.616C88.6547 60.8053 89.8067 59.6107 90.6601 58.032C91.5134 56.4533 91.9401 54.5333 91.9401 52.272C91.9401 48.9013 91.0441 46.32 89.2521 44.528C87.5027 42.6933 85.3481 41.776 82.7881 41.776C80.2281 41.776 78.0734 42.6933 76.3241 44.528C74.6174 46.32 73.7641 48.9013 73.7641 52.272C73.7641 55.6427 74.5961 58.2453 76.2601 60.08C77.9667 61.872 80.1001 62.768 82.6601 62.768ZM127.377 34.032C131.601 34.032 135.014 35.376 137.617 38.064C140.219 40.7093 141.521 44.4213 141.521 49.2V70H132.561V50.416C132.561 47.6 131.857 45.4453 130.449 43.952C129.041 42.416 127.121 41.648 124.689 41.648C122.214 41.648 120.251 42.416 118.801 43.952C117.393 45.4453 116.689 47.6 116.689 50.416V70H107.729V34.544H116.689V38.96C117.883 37.424 119.398 36.2293 121.233 35.376C123.11 34.48 125.158 34.032 127.377 34.032ZM164.825 61.744L173.785 34.544H183.321L170.201 70H159.321L146.265 34.544H155.865L164.825 61.744ZM204.098 70.576C200.684 70.576 197.612 69.8293 194.882 68.336C192.151 66.8 189.996 64.6453 188.418 61.872C186.882 59.0987 186.114 55.8987 186.114 52.272C186.114 48.6453 186.903 45.4453 188.482 42.672C190.103 39.8987 192.3 37.7653 195.074 36.272C197.847 34.736 200.94 33.968 204.354 33.968C207.767 33.968 210.86 34.736 213.634 36.272C216.407 37.7653 218.583 39.8987 220.162 42.672C221.783 45.4453 222.594 48.6453 222.594 52.272C222.594 55.8987 221.762 59.0987 220.098 61.872C218.476 64.6453 216.258 66.8 213.442 68.336C210.668 69.8293 207.554 70.576 204.098 70.576ZM204.098 62.768C205.719 62.768 207.234 62.384 208.642 61.616C210.092 60.8053 211.244 59.6107 212.098 58.032C212.951 56.4533 213.378 54.5333 213.378 52.272C213.378 48.9013 212.482 46.32 210.69 44.528C208.94 42.6933 206.786 41.776 204.226 41.776C201.666 41.776 199.511 42.6933 197.762 44.528C196.055 46.32 195.202 48.9013 195.202 52.272C195.202 55.6427 196.034 58.2453 197.698 60.08C199.404 61.872 201.538 62.768 204.098 62.768ZM243.054 33.968C245.699 33.968 248.025 34.5013 250.03 35.568C252.035 36.592 253.614 37.936 254.766 39.6V34.544H263.79V70.256C263.79 73.5413 263.129 76.464 261.806 79.024C260.483 81.6267 258.499 83.6747 255.854 85.168C253.209 86.704 250.009 87.472 246.254 87.472C241.219 87.472 237.081 86.2987 233.838 83.952C230.638 81.6053 228.825 78.4053 228.398 74.352H237.294C237.763 75.9733 238.766 77.2533 240.302 78.192C241.881 79.1733 243.779 79.664 245.998 79.664C248.601 79.664 250.713 78.8747 252.334 77.296C253.955 75.76 254.766 73.4133 254.766 70.256V64.752C253.614 66.416 252.014 67.8027 249.966 68.912C247.961 70.0213 245.657 70.576 243.054 70.576C240.067 70.576 237.337 69.808 234.862 68.272C232.387 66.736 230.425 64.5813 228.974 61.808C227.566 58.992 226.862 55.7707 226.862 52.144C226.862 48.56 227.566 45.3813 228.974 42.608C230.425 39.8347 232.366 37.7013 234.798 36.208C237.273 34.7147 240.025 33.968 243.054 33.968ZM254.766 52.272C254.766 50.096 254.339 48.24 253.486 46.704C252.633 45.1253 251.481 43.9307 250.03 43.12C248.579 42.2667 247.022 41.84 245.358 41.84C243.694 41.84 242.158 42.2453 240.75 43.056C239.342 43.8667 238.19 45.0613 237.294 46.64C236.441 48.176 236.014 50.0107 236.014 52.144C236.014 54.2773 236.441 56.1547 237.294 57.776C238.19 59.3547 239.342 60.5707 240.75 61.424C242.201 62.2773 243.737 62.704 245.358 62.704C247.022 62.704 248.579 62.2987 250.03 61.488C251.481 60.6347 252.633 59.44 253.486 57.904C254.339 56.3253 254.766 54.448 254.766 52.272ZM305.501 51.504C305.501 52.784 305.416 53.936 305.245 54.96H279.325C279.538 57.52 280.434 59.5253 282.013 60.976C283.592 62.4267 285.533 63.152 287.837 63.152C291.165 63.152 293.533 61.7227 294.941 58.864H304.605C303.581 62.2773 301.618 65.0933 298.717 67.312C295.816 69.488 292.253 70.576 288.029 70.576C284.616 70.576 281.544 69.8293 278.813 68.336C276.125 66.8 274.013 64.6453 272.477 61.872C270.984 59.0987 270.237 55.8987 270.237 52.272C270.237 48.6027 270.984 45.3813 272.477 42.608C273.97 39.8347 276.061 37.7013 278.749 36.208C281.437 34.7147 284.53 33.968 288.029 33.968C291.4 33.968 294.408 34.6933 297.053 36.144C299.741 37.5947 301.81 39.664 303.261 42.352C304.754 44.9973 305.501 48.048 305.501 51.504ZM296.221 48.944C296.178 46.64 295.346 44.8053 293.725 43.44C292.104 42.032 290.12 41.328 287.773 41.328C285.554 41.328 283.677 42.0107 282.141 43.376C280.648 44.6987 279.73 46.5547 279.389 48.944H296.221ZM331.689 34.032C335.913 34.032 339.326 35.376 341.929 38.064C344.532 40.7093 345.833 44.4213 345.833 49.2V70H336.873V50.416C336.873 47.6 336.169 45.4453 334.761 43.952C333.353 42.416 331.433 41.648 329.001 41.648C326.526 41.648 324.564 42.416 323.113 43.952C321.705 45.4453 321.001 47.6 321.001 50.416V70H312.041V34.544H321.001V38.96C322.196 37.424 323.71 36.2293 325.545 35.376C327.422 34.48 329.47 34.032 331.689 34.032Z" fill="black"/>
<path d="M26.1121 52.272C26.1121 48.6027 26.8587 45.4027 28.3521 42.672C29.8454 39.8987 31.9147 37.7653 34.5601 36.272C37.2054 34.736 40.2347 33.968 43.6481 33.968C48.0427 33.968 51.6694 35.0773 54.5281 37.296C57.4294 39.472 59.3707 42.544 60.3521 46.512H50.6881C50.1761 44.976 49.3014 43.7813 48.0641 42.928C46.8694 42.032 45.3761 41.584 43.5841 41.584C41.0241 41.584 38.9974 42.5227 37.5041 44.4C36.0107 46.2347 35.2641 48.8587 35.2641 52.272C35.2641 55.6427 36.0107 58.2667 37.5041 60.144C38.9974 61.9787 41.0241 62.896 43.5841 62.896C47.2107 62.896 49.5787 61.2747 50.6881 58.032H60.3521C59.3707 61.872 57.4294 64.9227 54.5281 67.184C51.6267 69.4453 48.0001 70.576 43.6481 70.576C40.2347 70.576 37.2054 69.8293 34.5601 68.336C31.9147 66.8 29.8454 64.6667 28.3521 61.936C26.8587 59.1627 26.1121 55.9413 26.1121 52.272ZM82.6601 70.576C79.2467 70.576 76.1747 69.8293 73.4441 68.336C70.7134 66.8 68.5587 64.6453 66.9801 61.872C65.4441 59.0987 64.6761 55.8987 64.6761 52.272C64.6761 48.6453 65.4654 45.4453 67.0441 42.672C68.6654 39.8987 70.8627 37.7653 73.6361 36.272C76.4094 34.736 79.5027 33.968 82.9161 33.968C86.3294 33.968 89.4227 34.736 92.1961 36.272C94.9694 37.7653 97.1454 39.8987 98.7241 42.672C100.345 45.4453 101.156 48.6453 101.156 52.272C101.156 55.8987 100.324 59.0987 98.6601 61.872C97.0387 64.6453 94.8201 66.8 92.0041 68.336C89.2307 69.8293 86.1161 70.576 82.6601 70.576ZM82.6601 62.768C84.2814 62.768 85.7961 62.384 87.2041 61.616C88.6547 60.8053 89.8067 59.6107 90.6601 58.032C91.5134 56.4533 91.9401 54.5333 91.9401 52.272C91.9401 48.9013 91.0441 46.32 89.2521 44.528C87.5027 42.6933 85.3481 41.776 82.7881 41.776C80.2281 41.776 78.0734 42.6933 76.3241 44.528C74.6174 46.32 73.7641 48.9013 73.7641 52.272C73.7641 55.6427 74.5961 58.2453 76.2601 60.08C77.9667 61.872 80.1001 62.768 82.6601 62.768ZM127.377 34.032C131.601 34.032 135.014 35.376 137.617 38.064C140.219 40.7093 141.521 44.4213 141.521 49.2V70H132.561V50.416C132.561 47.6 131.857 45.4453 130.449 43.952C129.041 42.416 127.121 41.648 124.689 41.648C122.214 41.648 120.251 42.416 118.801 43.952C117.393 45.4453 116.689 47.6 116.689 50.416V70H107.729V34.544H116.689V38.96C117.883 37.424 119.398 36.2293 121.233 35.376C123.11 34.48 125.158 34.032 127.377 34.032ZM164.825 61.744L173.785 34.544H183.321L170.201 70H159.321L146.265 34.544H155.865L164.825 61.744ZM204.098 70.576C200.684 70.576 197.612 69.8293 194.882 68.336C192.151 66.8 189.996 64.6453 188.418 61.872C186.882 59.0987 186.114 55.8987 186.114 52.272C186.114 48.6453 186.903 45.4453 188.482 42.672C190.103 39.8987 192.3 37.7653 195.074 36.272C197.847 34.736 200.94 33.968 204.354 33.968C207.767 33.968 210.86 34.736 213.634 36.272C216.407 37.7653 218.583 39.8987 220.162 42.672C221.783 45.4453 222.594 48.6453 222.594 52.272C222.594 55.8987 221.762 59.0987 220.098 61.872C218.476 64.6453 216.258 66.8 213.442 68.336C210.668 69.8293 207.554 70.576 204.098 70.576ZM204.098 62.768C205.719 62.768 207.234 62.384 208.642 61.616C210.092 60.8053 211.244 59.6107 212.098 58.032C212.951 56.4533 213.378 54.5333 213.378 52.272C213.378 48.9013 212.482 46.32 210.69 44.528C208.94 42.6933 206.786 41.776 204.226 41.776C201.666 41.776 199.511 42.6933 197.762 44.528C196.055 46.32 195.202 48.9013 195.202 52.272C195.202 55.6427 196.034 58.2453 197.698 60.08C199.404 61.872 201.538 62.768 204.098 62.768ZM243.054 33.968C245.699 33.968 248.025 34.5013 250.03 35.568C252.035 36.592 253.614 37.936 254.766 39.6V34.544H263.79V70.256C263.79 73.5413 263.129 76.464 261.806 79.024C260.483 81.6267 258.499 83.6747 255.854 85.168C253.209 86.704 250.009 87.472 246.254 87.472C241.219 87.472 237.081 86.2987 233.838 83.952C230.638 81.6053 228.825 78.4053 228.398 74.352H237.294C237.763 75.9733 238.766 77.2533 240.302 78.192C241.881 79.1733 243.779 79.664 245.998 79.664C248.601 79.664 250.713 78.8747 252.334 77.296C253.955 75.76 254.766 73.4133 254.766 70.256V64.752C253.614 66.416 252.014 67.8027 249.966 68.912C247.961 70.0213 245.657 70.576 243.054 70.576C240.067 70.576 237.337 69.808 234.862 68.272C232.387 66.736 230.425 64.5813 228.974 61.808C227.566 58.992 226.862 55.7707 226.862 52.144C226.862 48.56 227.566 45.3813 228.974 42.608C230.425 39.8347 232.366 37.7013 234.798 36.208C237.273 34.7147 240.025 33.968 243.054 33.968ZM254.766 52.272C254.766 50.096 254.339 48.24 253.486 46.704C252.633 45.1253 251.481 43.9307 250.03 43.12C248.579 42.2667 247.022 41.84 245.358 41.84C243.694 41.84 242.158 42.2453 240.75 43.056C239.342 43.8667 238.19 45.0613 237.294 46.64C236.441 48.176 236.014 50.0107 236.014 52.144C236.014 54.2773 236.441 56.1547 237.294 57.776C238.19 59.3547 239.342 60.5707 240.75 61.424C242.201 62.2773 243.737 62.704 245.358 62.704C247.022 62.704 248.579 62.2987 250.03 61.488C251.481 60.6347 252.633 59.44 253.486 57.904C254.339 56.3253 254.766 54.448 254.766 52.272ZM305.501 51.504C305.501 52.784 305.416 53.936 305.245 54.96H279.325C279.538 57.52 280.434 59.5253 282.013 60.976C283.592 62.4267 285.533 63.152 287.837 63.152C291.165 63.152 293.533 61.7227 294.941 58.864H304.605C303.581 62.2773 301.618 65.0933 298.717 67.312C295.816 69.488 292.253 70.576 288.029 70.576C284.616 70.576 281.544 69.8293 278.813 68.336C276.125 66.8 274.013 64.6453 272.477 61.872C270.984 59.0987 270.237 55.8987 270.237 52.272C270.237 48.6027 270.984 45.3813 272.477 42.608C273.97 39.8347 276.061 37.7013 278.749 36.208C281.437 34.7147 284.53 33.968 288.029 33.968C291.4 33.968 294.408 34.6933 297.053 36.144C299.741 37.5947 301.81 39.664 303.261 42.352C304.754 44.9973 305.501 48.048 305.501 51.504ZM296.221 48.944C296.178 46.64 295.346 44.8053 293.725 43.44C292.104 42.032 290.12 41.328 287.773 41.328C285.554 41.328 283.677 42.0107 282.141 43.376C280.648 44.6987 279.73 46.5547 279.389 48.944H296.221ZM331.689 34.032C335.913 34.032 339.326 35.376 341.929 38.064C344.532 40.7093 345.833 44.4213 345.833 49.2V70H336.873V50.416C336.873 47.6 336.169 45.4453 334.761 43.952C333.353 42.416 331.433 41.648 329.001 41.648C326.526 41.648 324.564 42.416 323.113 43.952C321.705 45.4453 321.001 47.6 321.001 50.416V70H312.041V34.544H321.001V38.96C322.196 37.424 323.71 36.2293 325.545 35.376C327.422 34.48 329.47 34.032 331.689 34.032Z" fill="white"/>
<path d="M105.636 18.854C105.635 20.0353 105.368 21.2011 104.854 22.2645C104.339 23.3284 101.628 26.091 100.449 26.5626C91.4886 25.3836 84.8251 10.3653 74.2756 21.1393C75.2277 20.7271 73.5555 21.8849 74.2756 21.1393C75.3131 21.1238 73.3239 21.5515 74.2756 21.1393C75.2395 21.523 73.2381 21.1547 74.2756 21.1393C75.0179 21.8632 73.3116 20.7556 74.2756 21.1393C66.7023 27.4579 73.5338 20.4155 74.2756 21.1393C74.2841 22.1749 73.8691 20.1864 74.2756 21.1393C73.8846 22.0986 74.2671 20.1037 74.2756 21.1393C73.5451 21.875 74.667 20.18 74.2756 21.1393C76.2881 8.47144 93.1392 17.1308 100.449 26.5626L41.793 26.7027C27.4235 26.7027 15.7329 38.275 15.7329 52.5001C15.7329 66.7251 27.4235 78.2974 41.793 78.2974L97.7693 78.2974C99.8556 78.2974 101.857 79.1246 103.332 80.597C104.807 82.0694 105.635 84.0665 105.635 86.1488C105.635 88.2311 104.807 90.2281 103.332 91.7005C101.857 93.1729 99.8556 94.0001 97.7693 94.0001L41.793 94.0001C18.7481 94.0001 -8.13764e-07 75.3834 -1.81402e-06 52.5001C-2.81427e-06 29.6171 18.7481 11.0001 41.793 11.0001L97.7693 11.0001C99.8556 11.0011 101.857 11.8287 103.332 13.3015C104.807 14.7743 105.636 16.7714 105.636 18.854Z" fill="url(#paint0_linear_1_81)"/>
<path d="M362 20L363.347 22.1457L365.804 22.7639L364.18 24.7083L364.351 27.2361L362 26.292L359.649 27.2361L359.82 24.7083L358.196 22.7639L360.653 22.1457L362 20Z" fill="url(#paint1_linear_1_81)"/>
<path d="M362 20L363.347 22.1457L365.804 22.7639L364.18 24.7083L364.351 27.2361L362 26.292L359.649 27.2361L359.82 24.7083L358.196 22.7639L360.653 22.1457L362 20Z" fill="url(#paint2_linear_1_81)"/>
<path d="M353 24L356.031 28.8279L361.56 30.2188L357.905 34.5936L358.29 40.2812L353 38.157L347.71 40.2812L348.096 34.5936L344.441 30.2188L349.969 28.8279L353 24Z" fill="url(#paint3_linear_1_81)"/>
<path d="M353 24L356.031 28.8279L361.56 30.2188L357.905 34.5936L358.29 40.2812L353 38.157L347.71 40.2812L348.096 34.5936L344.441 30.2188L349.969 28.8279L353 24Z" fill="url(#paint4_linear_1_81)"/>
<defs>
<linearGradient id="paint0_linear_1_81" x1="96.683" y1="49.199" x2="-9.9041" y2="49.199" gradientUnits="userSpaceOnUse">
<stop stop-color="#00C0F4"/>
<stop offset="1" stop-color="#12ECA0"/>
</linearGradient>
<linearGradient id="paint1_linear_1_81" x1="362" y1="20" x2="362" y2="28" gradientUnits="userSpaceOnUse">
<stop stop-color="#12ECA0"/>
<stop offset="1" stop-color="#00C0F4"/>
</linearGradient>
<linearGradient id="paint2_linear_1_81" x1="362" y1="20" x2="362" y2="28" gradientUnits="userSpaceOnUse">
<stop stop-color="#12ECA0"/>
<stop offset="1" stop-color="#00C0F4"/>
</linearGradient>
<linearGradient id="paint3_linear_1_81" x1="353" y1="24" x2="353" y2="42" gradientUnits="userSpaceOnUse">
<stop stop-color="#12ECA0"/>
<stop offset="1" stop-color="#00C0F4"/>
</linearGradient>
<linearGradient id="paint4_linear_1_81" x1="353" y1="24" x2="353" y2="42" gradientUnits="userSpaceOnUse">
<stop stop-color="#12ECA0"/>
<stop offset="1" stop-color="#00C0F4"/>
</linearGradient>
</defs>
</svg>
