<svg width="366" height="96" viewBox="0 0 366 96" fill="none" xmlns="http://www.w3.org/2000/svg">
<path d="M26.112 52.272C26.112 48.6027 26.8586 45.4027 28.352 42.672C29.8453 39.8987 31.9146 37.7653 34.56 36.272C37.2053 34.736 40.2346 33.968 43.648 33.968C48.0426 33.968 51.6693 35.0773 54.528 37.296C57.4293 39.472 59.3706 42.544 60.352 46.512H50.688C50.176 44.976 49.3013 43.7813 48.064 42.928C46.8693 42.032 45.376 41.584 43.584 41.584C41.024 41.584 38.9973 42.5227 37.504 44.4C36.0106 46.2347 35.264 48.8587 35.264 52.272C35.264 55.6427 36.0106 58.2667 37.504 60.144C38.9973 61.9787 41.024 62.896 43.584 62.896C47.2106 62.896 49.5786 61.2747 50.688 58.032H60.352C59.3706 61.872 57.4293 64.9227 54.528 67.184C51.6266 69.4453 48 70.576 43.648 70.576C40.2346 70.576 37.2053 69.8293 34.56 68.336C31.9146 66.8 29.8453 64.6667 28.352 61.936C26.8586 59.1627 26.112 55.9413 26.112 52.272ZM82.66 70.576C79.2466 70.576 76.1746 69.8293 73.444 68.336C70.7133 66.8 68.5586 64.6453 66.98 61.872C65.444 59.0987 64.676 55.8987 64.676 52.272C64.676 48.6453 65.4653 45.4453 67.044 42.672C68.6653 39.8987 70.8626 37.7653 73.636 36.272C76.4093 34.736 79.5026 33.968 82.916 33.968C86.3293 33.968 89.4226 34.736 92.196 36.272C94.9693 37.7653 97.1453 39.8987 98.724 42.672C100.345 45.4453 101.156 48.6453 101.156 52.272C101.156 55.8987 100.324 59.0987 98.66 61.872C97.0386 64.6453 94.82 66.8 92.004 68.336C89.2306 69.8293 86.116 70.576 82.66 70.576ZM82.66 62.768C84.2813 62.768 85.796 62.384 87.204 61.616C88.6546 60.8053 89.8066 59.6107 90.66 58.032C91.5133 56.4533 91.94 54.5333 91.94 52.272C91.94 48.9013 91.044 46.32 89.252 44.528C87.5026 42.6933 85.348 41.776 82.788 41.776C80.228 41.776 78.0733 42.6933 76.324 44.528C74.6173 46.32 73.764 48.9013 73.764 52.272C73.764 55.6427 74.596 58.2453 76.26 60.08C77.9666 61.872 80.1 62.768 82.66 62.768ZM127.376 34.032C131.6 34.032 135.014 35.376 137.616 38.064C140.219 40.7093 141.52 44.4213 141.52 49.2V70H132.56V50.416C132.56 47.6 131.856 45.4453 130.448 43.952C129.04 42.416 127.12 41.648 124.688 41.648C122.214 41.648 120.251 42.416 118.8 43.952C117.392 45.4453 116.688 47.6 116.688 50.416V70H107.728V34.544H116.688V38.96C117.883 37.424 119.398 36.2293 121.232 35.376C123.11 34.48 125.158 34.032 127.376 34.032ZM164.825 61.744L173.785 34.544H183.321L170.201 70H159.321L146.265 34.544H155.865L164.825 61.744ZM204.097 70.576C200.684 70.576 197.612 69.8293 194.881 68.336C192.151 66.8 189.996 64.6453 188.417 61.872C186.881 59.0987 186.113 55.8987 186.113 52.272C186.113 48.6453 186.903 45.4453 188.481 42.672C190.103 39.8987 192.3 37.7653 195.073 36.272C197.847 34.736 200.94 33.968 204.353 33.968C207.767 33.968 210.86 34.736 213.633 36.272C216.407 37.7653 218.583 39.8987 220.161 42.672C221.783 45.4453 222.593 48.6453 222.593 52.272C222.593 55.8987 221.761 59.0987 220.097 61.872C218.476 64.6453 216.257 66.8 213.441 68.336C210.668 69.8293 207.553 70.576 204.097 70.576ZM204.097 62.768C205.719 62.768 207.233 62.384 208.641 61.616C210.092 60.8053 211.244 59.6107 212.097 58.032C212.951 56.4533 213.377 54.5333 213.377 52.272C213.377 48.9013 212.481 46.32 210.689 44.528C208.94 42.6933 206.785 41.776 204.225 41.776C201.665 41.776 199.511 42.6933 197.761 44.528C196.055 46.32 195.201 48.9013 195.201 52.272C195.201 55.6427 196.033 58.2453 197.697 60.08C199.404 61.872 201.537 62.768 204.097 62.768ZM243.054 33.968C245.699 33.968 248.025 34.5013 250.03 35.568C252.035 36.592 253.614 37.936 254.766 39.6V34.544H263.79V70.256C263.79 73.5413 263.129 76.464 261.806 79.024C260.483 81.6267 258.499 83.6747 255.854 85.168C253.209 86.704 250.009 87.472 246.254 87.472C241.219 87.472 237.081 86.2987 233.838 83.952C230.638 81.6053 228.825 78.4053 228.398 74.352H237.294C237.763 75.9733 238.766 77.2533 240.302 78.192C241.881 79.1733 243.779 79.664 245.998 79.664C248.601 79.664 250.713 78.8747 252.334 77.296C253.955 75.76 254.766 73.4133 254.766 70.256V64.752C253.614 66.416 252.014 67.8027 249.966 68.912C247.961 70.0213 245.657 70.576 243.054 70.576C240.067 70.576 237.337 69.808 234.862 68.272C232.387 66.736 230.425 64.5813 228.974 61.808C227.566 58.992 226.862 55.7707 226.862 52.144C226.862 48.56 227.566 45.3813 228.974 42.608C230.425 39.8347 232.366 37.7013 234.798 36.208C237.273 34.7147 240.025 33.968 243.054 33.968ZM254.766 52.272C254.766 50.096 254.339 48.24 253.486 46.704C252.633 45.1253 251.481 43.9307 250.03 43.12C248.579 42.2667 247.022 41.84 245.358 41.84C243.694 41.84 242.158 42.2453 240.75 43.056C239.342 43.8667 238.19 45.0613 237.294 46.64C236.441 48.176 236.014 50.0107 236.014 52.144C236.014 54.2773 236.441 56.1547 237.294 57.776C238.19 59.3547 239.342 60.5707 240.75 61.424C242.201 62.2773 243.737 62.704 245.358 62.704C247.022 62.704 248.579 62.2987 250.03 61.488C251.481 60.6347 252.633 59.44 253.486 57.904C254.339 56.3253 254.766 54.448 254.766 52.272ZM305.501 51.504C305.501 52.784 305.416 53.936 305.245 54.96H279.325C279.538 57.52 280.434 59.5253 282.013 60.976C283.592 62.4267 285.533 63.152 287.837 63.152C291.165 63.152 293.533 61.7227 294.941 58.864H304.605C303.581 62.2773 301.618 65.0933 298.717 67.312C295.816 69.488 292.253 70.576 288.029 70.576C284.616 70.576 281.544 69.8293 278.813 68.336C276.125 66.8 274.013 64.6453 272.477 61.872C270.984 59.0987 270.237 55.8987 270.237 52.272C270.237 48.6027 270.984 45.3813 272.477 42.608C273.97 39.8347 276.061 37.7013 278.749 36.208C281.437 34.7147 284.53 33.968 288.029 33.968C291.4 33.968 294.408 34.6933 297.053 36.144C299.741 37.5947 301.81 39.664 303.261 42.352C304.754 44.9973 305.501 48.048 305.501 51.504ZM296.221 48.944C296.178 46.64 295.346 44.8053 293.725 43.44C292.104 42.032 290.12 41.328 287.773 41.328C285.554 41.328 283.677 42.0107 282.141 43.376C280.648 44.6987 279.73 46.5547 279.389 48.944H296.221ZM331.689 34.032C335.913 34.032 339.326 35.376 341.929 38.064C344.532 40.7093 345.833 44.4213 345.833 49.2V70H336.873V50.416C336.873 47.6 336.169 45.4453 334.761 43.952C333.353 42.416 331.433 41.648 329.001 41.648C326.526 41.648 324.564 42.416 323.113 43.952C321.705 45.4453 321.001 47.6 321.001 50.416V70H312.041V34.544H321.001V38.96C322.196 37.424 323.71 36.2293 325.545 35.376C327.422 34.48 329.47 34.032 331.689 34.032Z" fill="black"/>
<path d="M26.112 52.272C26.112 48.6027 26.8586 45.4027 28.352 42.672C29.8453 39.8987 31.9146 37.7653 34.56 36.272C37.2053 34.736 40.2346 33.968 43.648 33.968C48.0426 33.968 51.6693 35.0773 54.528 37.296C57.4293 39.472 59.3706 42.544 60.352 46.512H50.688C50.176 44.976 49.3013 43.7813 48.064 42.928C46.8693 42.032 45.376 41.584 43.584 41.584C41.024 41.584 38.9973 42.5227 37.504 44.4C36.0106 46.2347 35.264 48.8587 35.264 52.272C35.264 55.6427 36.0106 58.2667 37.504 60.144C38.9973 61.9787 41.024 62.896 43.584 62.896C47.2106 62.896 49.5786 61.2747 50.688 58.032H60.352C59.3706 61.872 57.4293 64.9227 54.528 67.184C51.6266 69.4453 48 70.576 43.648 70.576C40.2346 70.576 37.2053 69.8293 34.56 68.336C31.9146 66.8 29.8453 64.6667 28.352 61.936C26.8586 59.1627 26.112 55.9413 26.112 52.272ZM82.66 70.576C79.2466 70.576 76.1746 69.8293 73.444 68.336C70.7133 66.8 68.5586 64.6453 66.98 61.872C65.444 59.0987 64.676 55.8987 64.676 52.272C64.676 48.6453 65.4653 45.4453 67.044 42.672C68.6653 39.8987 70.8626 37.7653 73.636 36.272C76.4093 34.736 79.5026 33.968 82.916 33.968C86.3293 33.968 89.4226 34.736 92.196 36.272C94.9693 37.7653 97.1453 39.8987 98.724 42.672C100.345 45.4453 101.156 48.6453 101.156 52.272C101.156 55.8987 100.324 59.0987 98.66 61.872C97.0386 64.6453 94.82 66.8 92.004 68.336C89.2306 69.8293 86.116 70.576 82.66 70.576ZM82.66 62.768C84.2813 62.768 85.796 62.384 87.204 61.616C88.6546 60.8053 89.8066 59.6107 90.66 58.032C91.5133 56.4533 91.94 54.5333 91.94 52.272C91.94 48.9013 91.044 46.32 89.252 44.528C87.5026 42.6933 85.348 41.776 82.788 41.776C80.228 41.776 78.0733 42.6933 76.324 44.528C74.6173 46.32 73.764 48.9013 73.764 52.272C73.764 55.6427 74.596 58.2453 76.26 60.08C77.9666 61.872 80.1 62.768 82.66 62.768ZM127.376 34.032C131.6 34.032 135.014 35.376 137.616 38.064C140.219 40.7093 141.52 44.4213 141.52 49.2V70H132.56V50.416C132.56 47.6 131.856 45.4453 130.448 43.952C129.04 42.416 127.12 41.648 124.688 41.648C122.214 41.648 120.251 42.416 118.8 43.952C117.392 45.4453 116.688 47.6 116.688 50.416V70H107.728V34.544H116.688V38.96C117.883 37.424 119.398 36.2293 121.232 35.376C123.11 34.48 125.158 34.032 127.376 34.032ZM164.825 61.744L173.785 34.544H183.321L170.201 70H159.321L146.265 34.544H155.865L164.825 61.744ZM204.097 70.576C200.684 70.576 197.612 69.8293 194.881 68.336C192.151 66.8 189.996 64.6453 188.417 61.872C186.881 59.0987 186.113 55.8987 186.113 52.272C186.113 48.6453 186.903 45.4453 188.481 42.672C190.103 39.8987 192.3 37.7653 195.073 36.272C197.847 34.736 200.94 33.968 204.353 33.968C207.767 33.968 210.86 34.736 213.633 36.272C216.407 37.7653 218.583 39.8987 220.161 42.672C221.783 45.4453 222.593 48.6453 222.593 52.272C222.593 55.8987 221.761 59.0987 220.097 61.872C218.476 64.6453 216.257 66.8 213.441 68.336C210.668 69.8293 207.553 70.576 204.097 70.576ZM204.097 62.768C205.719 62.768 207.233 62.384 208.641 61.616C210.092 60.8053 211.244 59.6107 212.097 58.032C212.951 56.4533 213.377 54.5333 213.377 52.272C213.377 48.9013 212.481 46.32 210.689 44.528C208.94 42.6933 206.785 41.776 204.225 41.776C201.665 41.776 199.511 42.6933 197.761 44.528C196.055 46.32 195.201 48.9013 195.201 52.272C195.201 55.6427 196.033 58.2453 197.697 60.08C199.404 61.872 201.537 62.768 204.097 62.768ZM243.054 33.968C245.699 33.968 248.025 34.5013 250.03 35.568C252.035 36.592 253.614 37.936 254.766 39.6V34.544H263.79V70.256C263.79 73.5413 263.129 76.464 261.806 79.024C260.483 81.6267 258.499 83.6747 255.854 85.168C253.209 86.704 250.009 87.472 246.254 87.472C241.219 87.472 237.081 86.2987 233.838 83.952C230.638 81.6053 228.825 78.4053 228.398 74.352H237.294C237.763 75.9733 238.766 77.2533 240.302 78.192C241.881 79.1733 243.779 79.664 245.998 79.664C248.601 79.664 250.713 78.8747 252.334 77.296C253.955 75.76 254.766 73.4133 254.766 70.256V64.752C253.614 66.416 252.014 67.8027 249.966 68.912C247.961 70.0213 245.657 70.576 243.054 70.576C240.067 70.576 237.337 69.808 234.862 68.272C232.387 66.736 230.425 64.5813 228.974 61.808C227.566 58.992 226.862 55.7707 226.862 52.144C226.862 48.56 227.566 45.3813 228.974 42.608C230.425 39.8347 232.366 37.7013 234.798 36.208C237.273 34.7147 240.025 33.968 243.054 33.968ZM254.766 52.272C254.766 50.096 254.339 48.24 253.486 46.704C252.633 45.1253 251.481 43.9307 250.03 43.12C248.579 42.2667 247.022 41.84 245.358 41.84C243.694 41.84 242.158 42.2453 240.75 43.056C239.342 43.8667 238.19 45.0613 237.294 46.64C236.441 48.176 236.014 50.0107 236.014 52.144C236.014 54.2773 236.441 56.1547 237.294 57.776C238.19 59.3547 239.342 60.5707 240.75 61.424C242.201 62.2773 243.737 62.704 245.358 62.704C247.022 62.704 248.579 62.2987 250.03 61.488C251.481 60.6347 252.633 59.44 253.486 57.904C254.339 56.3253 254.766 54.448 254.766 52.272ZM305.501 51.504C305.501 52.784 305.416 53.936 305.245 54.96H279.325C279.538 57.52 280.434 59.5253 282.013 60.976C283.592 62.4267 285.533 63.152 287.837 63.152C291.165 63.152 293.533 61.7227 294.941 58.864H304.605C303.581 62.2773 301.618 65.0933 298.717 67.312C295.816 69.488 292.253 70.576 288.029 70.576C284.616 70.576 281.544 69.8293 278.813 68.336C276.125 66.8 274.013 64.6453 272.477 61.872C270.984 59.0987 270.237 55.8987 270.237 52.272C270.237 48.6027 270.984 45.3813 272.477 42.608C273.97 39.8347 276.061 37.7013 278.749 36.208C281.437 34.7147 284.53 33.968 288.029 33.968C291.4 33.968 294.408 34.6933 297.053 36.144C299.741 37.5947 301.81 39.664 303.261 42.352C304.754 44.9973 305.501 48.048 305.501 51.504ZM296.221 48.944C296.178 46.64 295.346 44.8053 293.725 43.44C292.104 42.032 290.12 41.328 287.773 41.328C285.554 41.328 283.677 42.0107 282.141 43.376C280.648 44.6987 279.73 46.5547 279.389 48.944H296.221ZM331.689 34.032C335.913 34.032 339.326 35.376 341.929 38.064C344.532 40.7093 345.833 44.4213 345.833 49.2V70H336.873V50.416C336.873 47.6 336.169 45.4453 334.761 43.952C333.353 42.416 331.433 41.648 329.001 41.648C326.526 41.648 324.564 42.416 323.113 43.952C321.705 45.4453 321.001 47.6 321.001 50.416V70H312.041V34.544H321.001V38.96C322.196 37.424 323.71 36.2293 325.545 35.376C327.422 34.48 329.47 34.032 331.689 34.032Z" fill="black"/>
<path d="M105.636 18.854C105.635 20.0353 105.368 21.2011 104.853 22.2645C104.339 23.3284 101.628 26.091 100.449 26.5626C91.4886 25.3836 84.825 10.3653 74.2755 21.1393C75.2276 20.7271 73.5554 21.8849 74.2755 21.1393C75.313 21.1238 73.3238 21.5515 74.2755 21.1393C75.2394 21.523 73.238 21.1547 74.2755 21.1393C75.0178 21.8632 73.3116 20.7556 74.2755 21.1393C66.7022 27.4579 73.5337 20.4155 74.2755 21.1393C74.284 22.1749 73.869 20.1864 74.2755 21.1393C73.8845 22.0986 74.267 20.1037 74.2755 21.1393C73.545 21.875 74.6669 20.18 74.2755 21.1393C76.288 8.47144 93.1391 17.1308 100.449 26.5626L41.7929 26.7027C27.4234 26.7027 15.7328 38.275 15.7328 52.5001C15.7328 66.7251 27.4234 78.2974 41.7929 78.2974L97.7692 78.2974C99.8555 78.2974 101.856 79.1246 103.332 80.597C104.807 82.0694 105.635 84.0665 105.635 86.1488C105.635 88.2311 104.807 90.2281 103.332 91.7005C101.856 93.1729 99.8555 94.0001 97.7692 94.0001L41.7929 94.0001C18.748 94.0001 -9.23665e-05 75.3834 -9.33668e-05 52.5001C-9.4367e-05 29.6171 18.748 11.0001 41.7929 11.0001L97.7692 11.0001C99.8555 11.0011 101.856 11.8287 103.332 13.3015C104.807 14.7743 105.636 16.7714 105.636 18.854Z" fill="url(#paint0_linear_1_56)"/>
<path d="M362 20L363.347 22.1457L365.804 22.7639L364.18 24.7083L364.351 27.2361L362 26.292L359.649 27.2361L359.82 24.7083L358.196 22.7639L360.653 22.1457L362 20Z" fill="url(#paint1_linear_1_56)"/>
<path d="M362 20L363.347 22.1457L365.804 22.7639L364.18 24.7083L364.351 27.2361L362 26.292L359.649 27.2361L359.82 24.7083L358.196 22.7639L360.653 22.1457L362 20Z" fill="url(#paint2_linear_1_56)"/>
<path d="M353 24L356.031 28.8279L361.56 30.2189L357.905 34.5936L358.29 40.2812L353 38.157L347.71 40.2812L348.095 34.5936L344.44 30.2189L349.969 28.8279L353 24Z" fill="url(#paint3_linear_1_56)"/>
<path d="M353 24L356.031 28.8279L361.56 30.2189L357.905 34.5936L358.29 40.2812L353 38.157L347.71 40.2812L348.095 34.5936L344.44 30.2189L349.969 28.8279L353 24Z" fill="url(#paint4_linear_1_56)"/>
<defs>
<linearGradient id="paint0_linear_1_56" x1="96.6829" y1="49.199" x2="-9.90419" y2="49.199" gradientUnits="userSpaceOnUse">
<stop stop-color="#00C0F4"/>
<stop offset="1" stop-color="#12ECA0"/>
</linearGradient>
<linearGradient id="paint1_linear_1_56" x1="362" y1="20" x2="362" y2="28" gradientUnits="userSpaceOnUse">
<stop stop-color="#12ECA0"/>
<stop offset="1" stop-color="#00C0F4"/>
</linearGradient>
<linearGradient id="paint2_linear_1_56" x1="362" y1="20" x2="362" y2="28" gradientUnits="userSpaceOnUse">
<stop stop-color="#12ECA0"/>
<stop offset="1" stop-color="#00C0F4"/>
</linearGradient>
<linearGradient id="paint3_linear_1_56" x1="353" y1="24" x2="353" y2="42" gradientUnits="userSpaceOnUse">
<stop stop-color="#12ECA0"/>
<stop offset="1" stop-color="#00C0F4"/>
</linearGradient>
<linearGradient id="paint4_linear_1_56" x1="353" y1="24" x2="353" y2="42" gradientUnits="userSpaceOnUse">
<stop stop-color="#12ECA0"/>
<stop offset="1" stop-color="#00C0F4"/>
</linearGradient>
</defs>
</svg>
